<?xml version="1.0" encoding="UTF-8"?>
<svg width="159px" height="36px" viewBox="0 0 159 36" version="1.1" xmlns="http://www.w3.org/2000/svg" xmlns:xlink="http://www.w3.org/1999/xlink">
    <!-- Generator: Sketch 49.3 (51167) - http://www.bohemiancoding.com/sketch -->
    <title>Group 5</title>
    <desc>Created with Sketch.</desc>
    <defs></defs>
    <g id="ver3" stroke="none" stroke-width="1" fill="none" fill-rule="evenodd">
        <g id="LP" transform="translate(-360.000000, -23.000000)">
            <g id="Group-5" transform="translate(360.000000, 23.000000)">
                <path d="M19.9008274,34.5581826 L10.6734926,34.5581826 C10.543602,34.5581826 10.4369061,34.663636 10.4369061,34.7931666 L10.4369061,35.7559061 C10.4369061,35.8861312 10.543602,35.9919318 10.6734926,35.9919318 L19.9008274,35.9919318 C20.0315298,35.9919318 20.136602,35.8861312 20.136602,35.7559061 L20.136602,34.7931666 C20.136602,34.663636 20.0315298,34.5581826 19.9008274,34.5581826 Z M10.6734926,1.43204759 L19.9008274,1.43204759 C20.0315298,1.43204759 20.136602,1.3274045 20.136602,1.1967164 L20.136602,0.235250161 C20.136602,0.105603859 20.0315298,3.47266881e-05 19.9008274,3.47266881e-05 L10.6734926,3.47266881e-05 C10.543602,3.47266881e-05 10.4369061,0.105603859 10.4369061,0.235250161 L10.4369061,1.1967164 C10.4369061,1.3274045 10.543602,1.43204759 10.6734926,1.43204759 Z M30.1628799,2.59041415 L20.7894182,2.59041415 C20.6596435,2.59041415 20.551788,2.69609904 20.551788,2.82574534 L20.551788,3.78906367 C20.551788,3.91859421 20.6596435,4.0242791 20.7894182,4.0242791 L29.4453503,4.0242791 L29.4453503,31.9813466 L20.7894182,31.9813466 C20.6596435,31.9813466 20.551788,32.0870315 20.551788,32.2158675 L20.551788,33.1789543 C20.551788,33.3080219 20.6596435,33.413591 20.7894182,33.413591 L30.1628799,33.413591 C30.5580024,33.413591 30.8812212,33.0935267 30.8812212,32.6990315 L30.8812212,3.30728875 C30.8812212,2.91221479 30.5580024,2.59041415 30.1628799,2.59041415 Z M9.99481422,2.59041415 L0.718074617,2.59041415 C0.322024289,2.59041415 -3.47921225e-05,2.91221479 -3.47921225e-05,3.30728875 L-3.47921225e-05,32.6990315 C-3.47921225e-05,33.0935267 0.322024289,33.413591 0.718074617,33.413591 L9.99481422,33.413591 C10.1234291,33.413591 10.2291972,33.3080219 10.2291972,33.1789543 L10.2291972,32.2158675 C10.2291972,32.0870315 10.1234291,31.9813466 9.99481422,31.9813466 L1.43490832,31.9813466 L1.43490832,4.0242791 L9.99481422,4.0242791 C10.1234291,4.0242791 10.2291972,3.91859421 10.2291972,3.78906367 L10.2291972,2.82574534 C10.2291972,2.69609904 10.1234291,2.59041415 9.99481422,2.59041415 Z M14.9410943,19.048665 L14.9410943,19.9578096 C14.9448055,19.9927678 14.946777,20.0280733 14.946777,20.0636103 C14.946777,20.6206264 14.4954072,21.0720733 13.935602,21.0720733 C13.913335,21.0720733 13.8913,21.0701055 13.869033,21.0684849 L12.7358536,21.0684849 L12.7358536,23.8312244 L12.7358536,24.2771151 L15.5953022,24.2771151 C17.6205516,24.2771151 19.270858,22.628755 19.270858,20.6063884 C19.270858,19.2059768 18.4853678,17.9459768 17.2203263,17.3228643 L15.931742,16.6859768 L16.9658799,15.6875846 C17.4242081,15.2474817 17.6773788,14.6602534 17.6773788,14.029964 C17.6773788,12.7607035 16.6453284,11.7303627 15.3744882,11.7303627 L12.7358536,11.7303627 L12.7358536,13.7227486 L10.7110681,13.7227486 L10.7110681,9.74793183 L15.9615473,9.74793183 L15.9615473,9.75105723 C18.0631074,10.0413723 19.7040199,11.869501 19.7040199,14.029964 C19.7040199,14.7851537 19.5115035,15.5122148 19.1451425,16.1563949 C20.4989039,17.2275974 21.2957595,18.8589415 21.2957595,20.6063884 C21.2957595,23.4552502 19.1995341,25.8210637 16.4292694,26.2243563 L10.7110681,26.2243563 L10.7110681,20.2335395 C10.7110681,19.5821826 11.2403722,19.0542212 11.8919127,19.0542212 L11.8919127,19.0524849 L14.9410943,19.048665 Z" id="Fill-1" fill="#3FAE49"></path>
                <path d="M158.553768,19.7243884 C158.42898,19.4990122 158.279258,19.2877582 158.107965,19.0901633 C157.934352,18.8930315 157.736385,18.7149994 157.509076,18.5564141 C157.283044,18.3965556 157.038455,18.250935 156.779718,18.1157325 C156.518081,17.9820347 156.232785,17.8652373 155.921976,17.7644141 C155.283656,17.5548965 154.612284,17.3820733 153.907396,17.2494174 C153.680667,17.2068193 153.470871,17.1612116 153.278586,17.1108579 C153.084678,17.0603884 152.908166,17.0107293 152.747426,16.9595653 C152.580192,16.901919 152.433486,16.8427678 152.30777,16.7837325 C152.181823,16.7260862 152.071879,16.6627678 151.979448,16.5947035 C151.780089,16.4700347 151.641037,16.3307807 151.56403,16.1805299 C151.472063,16.0378032 151.426602,15.8668322 151.426602,15.6651859 C151.426602,15.2377003 151.594184,14.8939061 151.930391,14.6344977 C152.257901,14.3578418 152.720173,14.2200926 153.315466,14.2200926 C153.66791,14.2200926 153.961208,14.2411601 154.197678,14.2826006 C154.431713,14.3243884 154.645569,14.4169929 154.839593,14.5585621 C155.007291,14.6764013 155.139617,14.8121826 155.235643,14.9674109 C155.331901,15.1226392 155.401833,15.2843498 155.444396,15.4523113 C155.467823,15.5512823 155.501339,15.657083 155.537755,15.766009 C155.575678,15.8745878 155.615689,15.982009 155.657324,16.0859576 C155.69977,16.1914109 155.743028,16.2858675 155.790809,16.3690958 C155.835459,16.4524399 155.880457,16.5146006 155.921976,16.558009 C156.182685,16.8755267 156.504628,17.1277582 156.88537,17.3115781 C157.267155,17.4964399 157.68872,17.5885814 158.150991,17.5885814 L158.90714,17.5885814 L158.90714,15.8795653 C158.890208,15.2922212 158.759389,14.7514109 158.516888,14.2570186 C158.256179,13.7290572 157.886687,13.2809672 157.408527,12.912054 C157.164402,12.7193209 156.898243,12.5496232 156.608772,12.402382 C156.31849,12.2569929 156.002114,12.1241055 155.657324,12.007308 C154.99349,11.7976746 154.217626,11.6936103 153.328223,11.6936103 C152.513623,11.6936103 151.769884,11.8025363 151.098164,12.0201569 C150.435954,12.2457646 149.872669,12.5521698 149.411442,12.9369415 C148.974801,13.297636 148.627111,13.7335717 148.366518,14.2456746 C148.132019,14.7640283 148.01303,15.2922212 148.01303,15.828517 C148.01303,16.4153981 148.132019,16.918009 148.366518,17.3371601 C148.483536,17.5548965 148.627111,17.7603627 148.794346,17.9534431 C148.96216,18.1453659 149.147254,18.3260605 149.347192,18.4932116 C149.566383,18.6534174 149.802041,18.8012373 150.05382,18.9399125 C150.304672,19.078009 150.573963,19.2014045 150.86007,19.3102148 C151.153483,19.4205299 151.454899,19.5197325 151.765593,19.6124527 C152.075823,19.7037839 152.407855,19.7884013 152.761923,19.8637582 C153.029591,19.9300862 153.279978,19.9918997 153.509838,20.0463048 C153.740626,20.1005942 153.945203,20.1566199 154.121135,20.2158868 C154.297647,20.282099 154.454676,20.3486585 154.593844,20.4094302 C154.732317,20.4733273 154.855945,20.5420862 154.964844,20.6174431 C155.166871,20.743964 155.301284,20.8862277 155.367969,21.0446971 C155.444396,21.1957582 155.481623,21.3680026 155.481623,21.5599254 C155.481623,21.9791923 155.310446,22.3151151 154.964844,22.5663048 C154.619939,22.8334688 154.103739,22.9679768 153.416943,22.9679768 C153.089201,22.9679768 152.782914,22.930472 152.496575,22.8543048 C152.20177,22.7632051 151.946628,22.6465235 151.728597,22.5029865 C151.501868,22.3536617 151.325472,22.1521312 151.199177,21.8997839 C151.165429,21.8415588 151.136667,21.7695588 151.111501,21.6863305 C151.086798,21.6031023 151.065807,21.5184849 151.048991,21.4353723 C150.93035,20.9732759 150.726236,20.5839897 150.431315,20.265546 C150.154718,19.9974559 149.834746,19.7853916 149.474068,19.6303949 C149.112346,19.4766714 148.727313,19.3981891 148.315722,19.3981891 L147.597381,19.3981891 L147.585667,21.0078868 C147.585667,21.1582534 147.606311,21.3472823 147.648873,21.5726585 C147.690739,21.7982662 147.765774,22.0487614 147.873978,22.3215974 C147.983689,22.5938547 148.134571,22.878382 148.328479,23.1762212 C148.520647,23.4735974 148.765584,23.7637968 149.059114,24.0497132 C149.301035,24.2843498 149.575081,24.483218 149.876149,24.6464334 C150.179188,24.8099961 150.506466,24.9536489 150.86007,25.0801698 C151.556376,25.3473338 152.387908,25.4818418 153.353969,25.4818418 C154.209044,25.4818418 154.977602,25.3810186 155.657324,25.1809929 C156.002114,25.0721826 156.321041,24.9472823 156.615963,24.8099961 C156.908332,24.6713209 157.177855,24.5106521 157.420704,24.3264849 C157.916144,23.9578032 158.289464,23.5298547 158.542286,23.0433338 C158.810302,22.5583177 158.944715,22.0176232 158.944715,21.4225235 C158.944715,20.7598225 158.813781,20.1950508 158.553768,19.7243884 Z M143.440186,18.3227035 C143.440186,17.7869865 143.390433,17.2763884 143.289188,16.7949608 C143.188291,16.310755 143.02558,15.8875524 142.798735,15.5226907 C142.571079,15.1579447 142.276389,14.8685556 141.916987,14.6537132 C141.555496,14.4394495 141.119203,14.3322598 140.605672,14.3322598 C140.101998,14.3322598 139.672547,14.4394495 139.31616,14.6537132 C138.958728,14.8685556 138.668214,15.1579447 138.447168,15.5226907 C138.224847,15.8875524 138.062715,16.310755 137.961818,16.7949608 C137.861733,17.2763884 137.8114,17.7869865 137.8114,18.3227035 L137.8114,18.5884785 C137.8114,19.1420219 137.861733,19.6622277 137.961818,20.1487486 C138.062715,20.6351537 138.224847,21.0576617 138.447168,21.4141891 C138.668214,21.7711794 138.958728,22.0542019 139.31616,22.2639511 C139.672547,22.4737003 140.111275,22.5791537 140.631766,22.5791537 C141.135208,22.5791537 141.565702,22.4737003 141.922785,22.2639511 C142.278825,22.0542019 142.571079,21.7711794 142.798735,21.4141891 C143.02558,21.0576617 143.188291,20.6351537 143.289188,20.1487486 C143.390433,19.6622277 143.440186,19.1420219 143.440186,18.5884785 L143.440186,18.3227035 Z M146.652079,15.5769801 C146.937374,16.4237325 147.078978,17.3412116 147.078978,18.3291859 L147.078978,18.5941505 C147.078978,19.5918482 146.937374,20.511874 146.652079,21.3535331 C146.366319,22.1950765 145.948234,22.9239897 145.39817,23.5398096 C144.848919,24.1570186 144.174184,24.6385621 143.376632,24.9858289 C142.578733,25.3330958 141.664628,25.5074238 140.631766,25.5074238 C139.598788,25.5074238 138.682363,25.3330958 137.879593,24.9858289 C137.07775,24.6385621 136.402087,24.1570186 135.8533,23.5398096 C135.302424,22.9239897 134.884687,22.1950765 134.599971,21.3535331 C134.314328,20.511874 134.171216,19.5918482 134.171216,18.5941505 L134.171216,18.3291859 C134.171216,17.3412116 134.314328,16.4237325 134.599971,15.5769801 C134.884687,14.7305749 135.299641,13.9994624 135.845529,13.3834109 C136.392577,12.767128 137.066269,12.283964 137.867416,11.9320669 C138.668214,11.5801698 139.581855,11.4039897 140.605672,11.4039897 C141.639461,11.4039897 142.558669,11.5801698 143.365267,11.9320669 C144.170125,12.283964 144.848919,12.767128 145.39817,13.3834109 C145.948234,13.9994624 146.366319,14.7305749 146.652079,15.5769801 Z M131.547658,12.1271151 C131.065556,12.4329415 130.698383,12.8360026 130.444632,13.3395395 C130.194013,12.8360026 129.827072,12.4329415 129.345317,12.1271151 C128.861127,11.82071 128.317326,11.6639768 127.712987,11.6554109 L126.970291,11.6554109 L126.970291,11.6680283 L126.970291,23.5583305 C126.970291,23.8113723 127.015984,24.0448514 127.108763,24.2623563 C127.200963,24.4807871 127.328302,24.6713209 127.492984,24.8353466 C127.656044,24.9985621 127.846356,25.126472 128.065895,25.2178032 C128.284621,25.3106392 128.519004,25.3568257 128.771363,25.3568257 C129.005166,25.3568257 129.230387,25.3106392 129.444243,25.2178032 C129.65891,25.126472 129.848759,24.9985621 130.012166,24.8353466 C130.175457,24.6713209 130.303724,24.4807871 130.394995,24.2623563 C130.487426,24.0448514 130.534048,23.8113723 130.534048,23.5583305 L130.534048,16.5947035 C130.642831,16.3771987 130.779912,16.1867807 130.943435,16.0235653 C131.108002,15.8603498 131.293676,15.7194752 131.503588,15.6026778 C131.721503,15.4681698 131.972006,15.3715138 132.254054,15.3130572 C132.534595,15.2554109 132.852363,15.225083 133.203763,15.225083 C133.313011,15.225083 133.419707,15.2275138 133.525243,15.2314495 C133.628923,15.2361955 133.740954,15.2425621 133.858667,15.250665 L133.921757,15.2625878 L133.921757,11.6554109 L133.179061,11.6554109 C132.573794,11.6639768 132.029529,11.82071 131.547658,12.1271151 Z M122.183823,18.2926071 C122.183823,18.0156039 122.173617,17.7451987 122.153669,17.4813916 C122.130939,17.2173531 122.095682,16.964427 122.04535,16.7212244 C121.944337,16.2348193 121.792759,15.8074495 121.591893,15.4380733 C121.365744,15.0697389 121.091814,14.7896103 120.773002,14.5960669 C120.454074,14.3865492 120.047354,14.2826006 119.552726,14.2826006 C118.989906,14.2826006 118.506179,14.4081955 118.103402,14.6601955 C117.717674,14.9112695 117.411619,15.2625878 117.183731,15.7155395 L117.183731,21.0822019 C117.411619,21.5351537 117.717674,21.8878611 118.103402,22.1391666 C118.506179,22.3903563 118.998604,22.5158354 119.576153,22.5158354 C120.063127,22.5158354 120.466831,22.4159383 120.785875,22.2135974 C121.122431,22.0037325 121.393809,21.7198997 121.60465,21.3592051 C121.705315,21.1758482 121.791483,20.9808 121.862575,20.7749865 C121.933899,20.5692887 121.999656,20.3494688 122.058107,20.1150637 C122.100901,19.8717453 122.130939,19.6220605 122.153669,19.366935 C122.173617,19.1119254 122.183823,18.8453402 122.183823,18.5684527 L122.183823,18.2926071 Z M125.458225,15.4523113 C125.703046,16.3307807 125.823079,17.2778932 125.823079,18.2926071 L125.823079,18.5684527 C125.823079,19.5414945 125.703046,20.4542277 125.458225,21.3087357 C125.223378,22.163128 124.875573,22.8928514 124.415505,23.4961698 C123.970746,24.1072437 123.418247,24.5895974 122.753833,24.9408 C122.117602,25.2849415 121.366092,25.4563756 120.503711,25.4563756 C119.722976,25.4563756 119.058562,25.3106392 118.504556,25.0169672 C117.941851,24.7315138 117.445367,24.3129415 117.00803,23.7600926 L116.944129,23.6977003 C116.92824,23.6808 116.909685,23.6641312 116.888577,23.6473466 C116.867238,23.6306778 116.851698,23.6178289 116.844044,23.6088 C116.600499,24.0865235 116.246895,24.4743048 115.7801,24.7721441 C115.314582,25.0706778 114.796063,25.2178032 114.225125,25.2178032 L113.519772,25.2178032 L113.495302,5.89795756 L114.149162,5.89795756 C114.568871,5.89795756 114.963297,5.97806045 115.333833,6.13710868 C115.70147,6.29627267 116.023065,6.514009 116.295604,6.79101222 C116.56907,7.06697363 116.785709,7.3892373 116.944129,7.75815048 C117.105216,8.12683215 117.183731,8.5206328 117.183731,8.93966817 L117.183731,12.8120412 C117.595089,12.3505235 118.072553,11.9863563 118.616934,11.7174559 C118.885761,11.5927871 119.175116,11.4960154 119.486041,11.4295717 C119.795459,11.3624334 120.1261,11.3289801 120.478197,11.3289801 C121.316919,11.3289801 122.071444,11.4960154 122.742584,11.8312437 C123.396212,12.1663563 123.954626,12.6409543 124.415505,13.2521441 C124.649308,13.5617904 124.85319,13.8986392 125.023904,14.2633852 C125.196356,14.6282469 125.34144,15.0236682 125.458225,15.4523113 Z M109.871818,11.8297389 C109.519374,11.851964 109.190009,11.9328772 108.884186,12.0750251 C108.576391,12.2185621 108.306637,12.4149994 108.072138,12.6665363 C107.835783,12.9176103 107.655792,13.2115138 107.52996,13.5466264 L107.518595,13.5466264 L105.502623,20.2846457 L103.48816,13.5466264 C103.361864,13.2115138 103.177234,12.9192309 102.933573,12.6718611 C102.689912,12.4248386 102.417374,12.2312952 102.115146,12.0879897 C101.813151,11.9456103 101.486917,11.8615717 101.139575,11.8361055 C100.79003,11.8120283 100.443733,11.8615717 100.099175,11.9879768 L99.2183543,12.2890572 L103.815321,25.4626264 L103.438639,26.4931987 C103.387378,26.6194881 103.337626,26.735591 103.287061,26.8452116 C103.235453,26.9540219 103.177234,27.0579704 103.109969,27.1587936 C103.042704,27.2427164 102.971496,27.3227035 102.894954,27.3978289 C102.819571,27.4738804 102.736534,27.5403241 102.644219,27.5988965 C102.484523,27.7171987 102.265912,27.800427 101.989663,27.8507807 C101.94768,27.8578418 101.877284,27.8658289 101.780794,27.8691859 C101.685,27.8731215 101.579,27.8805299 101.466969,27.888517 C101.352851,27.8963884 101.238501,27.902755 101.119048,27.9076167 C101.001914,27.9106264 100.897306,27.9178032 100.805687,27.9267164 L100.779825,27.9267164 L99.3819932,27.9267164 L99.3697,27.9267164 L99.3819932,28.5300347 C99.3819932,28.8228965 99.4208444,29.1044141 99.4949516,29.3718096 C99.5699867,29.6405942 99.6882799,29.8781248 99.8493674,30.0869479 L99.8594571,30.1003756 C100.054525,30.3446199 100.292387,30.530292 100.577798,30.6599383 C100.863094,30.7901633 101.162074,30.8469994 101.472304,30.8292887 C101.682216,30.8213016 101.915788,30.8084527 102.172089,30.7925942 C102.42758,30.7749994 102.675416,30.75671 102.915133,30.735874 C103.153923,30.7141119 103.367895,30.6917711 103.557512,30.6661891 C103.746665,30.6414174 103.877831,30.6167614 103.953446,30.5902534 C104.197223,30.4662791 104.423488,30.3307293 104.633168,30.1891601 C104.844009,30.0470122 105.028175,29.8869222 105.187523,29.7109736 C105.355801,29.543591 105.507146,29.3654431 105.641212,29.1764141 C105.774814,28.9878482 105.888932,28.7845814 105.980319,28.566845 C106.074026,28.3748064 106.162398,28.186009 106.245435,28.0020733 C106.329052,27.816517 106.405015,27.640337 106.472744,27.4738804 L111.775179,12.2760926 L110.917785,11.9879768 C110.572995,11.8615717 110.224842,11.8105235 109.871818,11.8297389 Z M98.9289998,14.3705749 C98.7279013,13.7250058 98.433444,13.1968129 98.0471354,12.7864592 C97.6865731,12.3850186 97.2369429,12.0951666 96.6990567,11.919218 C96.4312733,11.8269608 96.1474856,11.7577389 95.849433,11.7128257 C95.5513805,11.666292 95.2434702,11.6424463 94.9230348,11.6424463 C94.0179757,11.6424463 93.2232077,11.8233723 92.5447613,12.1831408 C91.8809276,12.5521698 91.3350392,13.0507293 90.9066322,13.6792823 C90.5454899,12.9673852 90.0667503,12.4471794 89.4712252,12.1206328 C88.9921376,11.8695588 88.4467131,11.7174559 87.8337919,11.6680283 L87.8337919,25.2563498 L88.7529998,25.2563498 C89.1136781,25.2563498 89.4558007,25.1874752 89.7790195,25.0482212 C90.10363,24.9108193 90.386374,24.7217904 90.6295709,24.483218 C90.8733477,24.2440669 91.0641245,23.9663691 91.2017853,23.6473466 C91.3411858,23.3297132 91.4101902,22.9888129 91.4101902,22.6288129 C91.40184,21.4125685 91.3963893,20.3287486 91.3963893,19.3723756 L91.3963893,16.0797068 C91.5900654,15.6108965 91.8686344,15.2377003 92.2296606,14.9610444 C92.6071551,14.6842727 93.0689626,14.5465235 93.6136912,14.5465235 C93.941549,14.5465235 94.2231333,14.5755781 94.4576322,14.6344977 C94.7095271,14.7018675 94.9230348,14.8144977 95.1000107,14.9729672 C95.2762908,15.1499576 95.4067613,15.3755653 95.4903783,15.6521055 C95.5415228,15.7946006 95.5771267,15.956427 95.5988138,16.136427 C95.6185293,16.3171215 95.628851,16.5203884 95.628851,16.7465749 L95.6427678,22.3775074 C95.6427678,22.7711923 95.717107,23.1441569 95.8684527,23.4961698 C96.0192186,23.8481826 96.2254199,24.1536617 96.485433,24.4137646 C96.7456781,24.6738675 97.050805,24.8785235 97.3987263,25.0290058 C97.7473433,25.1809929 98.1224024,25.2563498 98.5257591,25.2563498 L99.2183543,25.2563498 L99.2183543,16.7465749 C99.2183543,16.2682727 99.1957394,15.8347678 99.148654,15.4450186 C99.1040042,15.055501 99.0300129,14.6971215 98.9289998,14.3705749 Z M86.3972252,14.3705749 C86.1963586,13.7250058 85.9012055,13.1968129 85.5166365,12.7864592 C85.1547985,12.3850186 84.7050523,12.0951666 84.1684418,11.919218 C83.8994987,11.8269608 83.6158269,11.7577389 83.3182383,11.7128257 C83.0203018,11.666292 82.7114637,11.6424463 82.3927678,11.6424463 C81.4860851,11.6424463 80.6932886,11.8233723 80.0129867,12.1831408 C79.3482252,12.5521698 78.8034965,13.0507293 78.3748575,13.6792823 C78.0138313,12.9673852 77.5359035,12.4471794 76.9401464,12.1206328 C76.4609429,11.8695588 75.9162142,11.7174559 75.3025972,11.6680283 L75.3025972,25.2563498 L76.2214571,25.2563498 C76.5821354,25.2563498 76.9251858,25.1874752 77.2479407,25.0482212 C77.5711595,24.9108193 77.8543674,24.7217904 78.0983761,24.483218 C78.3431967,24.2440669 78.5330457,23.9663691 78.6716344,23.6473466 C78.8089473,23.3297132 78.8786475,22.9888129 78.8786475,22.6288129 C78.8705293,21.4125685 78.8664702,20.3287486 78.8664702,19.3723756 L78.8664702,16.0797068 C79.0597985,15.6108965 79.3368597,15.2377003 79.6984659,14.9610444 C80.0751486,14.6842727 80.536956,14.5465235 81.0826125,14.5465235 C81.4108182,14.5465235 81.6919385,14.5755781 81.9274812,14.6344977 C82.1784484,14.7018675 82.3927678,14.8144977 82.568816,14.9729672 C82.7447481,15.1499576 82.8751026,15.3755653 82.9587197,15.6521055 C83.0100961,15.7946006 83.0460479,15.956427 83.0670392,16.136427 C83.0872186,16.3171215 83.098816,16.5203884 83.098816,16.7465749 L83.1109932,22.3775074 C83.1109932,22.7711923 83.1857963,23.1441569 83.3377219,23.4961698 C83.4876759,23.8481826 83.6943411,24.1536617 83.9549341,24.4137646 C84.2144834,24.6738675 84.5190304,24.8785235 84.8681114,25.0290058 C85.2160326,25.1809929 85.5908597,25.2563498 85.9946803,25.2563498 L86.6871595,25.2563498 L86.6871595,16.7465749 C86.6871595,16.2682727 86.6637328,15.8347678 86.6183871,15.4450186 C86.5713018,15.055501 86.4984702,14.6971215 86.3972252,14.3705749 Z M73.4639495,13.6922469 C73.3214177,13.4233466 73.1532558,13.1850058 72.9609713,12.9752566 C72.5830129,12.5730058 72.1245687,12.2760926 71.5874943,12.0822019 C71.0417219,11.9064849 70.4456168,11.8182791 69.7984834,11.8182791 C69.0763149,11.8182791 68.4141048,11.965636 67.808258,12.2584977 C67.5157722,12.4087486 67.2367394,12.588054 66.977654,12.7928257 C66.7179888,12.9975974 66.4785031,13.2344334 66.2593127,13.503218 L66.2593127,8.82645916 C66.2593127,8.45812476 66.1913521,8.10946881 66.0583302,7.77829196 C65.9234527,7.44699936 65.7394024,7.15309582 65.5042077,6.89785466 C65.2693608,6.64191897 64.9924155,6.43483215 64.6732558,6.27543666 C64.3540961,6.11557814 64.0094221,6.02841415 63.6406256,6.01162958 L62.7340589,6.01162958 L62.7340589,25.2563498 L63.6406256,25.2563498 C64.0094221,25.2395653 64.3540961,25.1513595 64.6732558,24.9921955 C64.9924155,24.8328 65.2693608,24.627218 65.5042077,24.3761441 C65.7394024,24.1249543 65.9234527,23.8320926 66.0583302,23.4961698 C66.1913521,23.1615203 66.2593127,22.8095074 66.2593127,22.4400154 L66.2593127,15.8795653 C66.4696891,15.5185235 66.7596234,15.225083 67.1289998,14.9985492 C67.5066103,14.7896103 67.9683018,14.6842727 68.5139582,14.6842727 C68.8412361,14.6842727 69.1404484,14.7227035 69.4082317,14.7979447 C69.6682449,14.8649672 69.8904505,14.9865106 70.0757766,15.1626907 C70.2680611,15.3547293 70.4035184,15.5851987 70.4789013,15.8539833 C70.5789867,16.130755 70.6301311,16.4827678 70.6301311,16.9092116 L70.6301311,22.4400154 C70.6301311,22.8095074 70.6978597,23.1615203 70.8318094,23.4961698 C70.9645993,23.8320926 71.151433,24.1249543 71.3863958,24.3761441 C71.6201989,24.627218 71.89784,24.8328 72.2169998,24.9921955 C72.5361595,25.1513595 72.8803696,25.2395653 73.2500939,25.2563498 L74.1439035,25.2563498 L74.1563127,16.9356039 C74.1563127,16.012337 74.0555315,15.225083 73.8535053,14.5711794 C73.7363718,14.2528514 73.6065972,13.9594109 73.4639495,13.6922469 Z M57.9472427,18.3227035 C57.9472427,17.7869865 57.8976059,17.2763884 57.7958969,16.7949608 C57.6962755,16.310755 57.5322886,15.8875524 57.3050961,15.5226907 C57.0783674,15.1579447 56.7858816,14.8685556 56.4236956,14.6537132 C56.0635972,14.4394495 55.6248685,14.3322598 55.1155118,14.3322598 C54.611142,14.3322598 54.1798357,14.4394495 53.8232164,14.6537132 C53.4656694,14.8685556 53.1773586,15.1579447 52.9542252,15.5226907 C52.7322514,15.8875524 52.5695403,16.310755 52.4694549,16.7949608 C52.3683258,17.2763884 52.3182252,17.7869865 52.3182252,18.3227035 L52.3182252,18.5884785 C52.3182252,19.1420219 52.3683258,19.6622277 52.4694549,20.1487486 C52.5695403,20.6351537 52.7322514,21.0576617 52.9542252,21.4141891 C53.1773586,21.7711794 53.4656694,22.0542019 53.8232164,22.2639511 C54.1798357,22.4737003 54.6175206,22.5791537 55.1395184,22.5791537 C55.6418007,22.5791537 56.0733389,22.4737003 56.4298422,22.2639511 C56.7873893,22.0542019 57.0783674,21.7711794 57.3050961,21.4141891 C57.5322886,21.0576617 57.6962755,20.6351537 57.7958969,20.1487486 C57.8976059,19.6622277 57.9472427,19.1420219 57.9472427,18.5884785 L57.9472427,18.3227035 Z M61.1591354,15.5769801 C61.4443149,16.4237325 61.5878904,17.3412116 61.5878904,18.3291859 L61.5878904,18.5941505 C61.5878904,19.5918482 61.4443149,20.511874 61.1591354,21.3535331 C60.874072,22.1950765 60.4554068,22.9239897 59.9062711,23.5398096 C59.3556278,24.1570186 58.6824002,24.6385621 57.8845009,24.9858289 C57.0870654,25.3330958 56.1711048,25.5074238 55.1395184,25.5074238 C54.1067722,25.5074238 53.1881442,25.3330958 52.3881573,24.9858289 C51.5845753,24.6385621 50.9094921,24.1570186 50.3590807,23.5398096 C49.8105249,22.9239897 49.3919757,22.1950765 49.10784,21.3535331 C48.8213849,20.511874 48.6789691,19.5918482 48.6789691,18.5941505 L48.6789691,18.3291859 C48.6789691,17.3412116 48.8213849,16.4237325 49.10784,15.5769801 C49.3919757,14.7305749 49.8073937,13.9994624 50.353746,13.3834109 C50.9002142,12.767128 51.5732098,12.283964 52.3741245,11.9320669 C53.1773586,11.5801698 54.0894921,11.4039897 55.1155118,11.4039897 C56.1460545,11.4039897 57.0665381,11.5801698 57.8717438,11.9320669 C58.6783411,12.283964 59.3556278,12.767128 59.9062711,13.3834109 C60.4554068,13.9994624 60.874072,14.7305749 61.1591354,15.5769801 Z M45.6064768,6.31259421 C44.9769713,6.31259421 44.4800239,6.49317299 44.1191136,6.85328875 C43.7515928,7.20518585 43.5658028,7.65003473 43.5658028,8.18633055 C43.5658028,8.47953955 43.6171792,8.73906367 43.7171486,8.96548167 C43.8182777,9.19108939 43.9525753,9.3877582 44.1191136,9.55595113 C44.2132842,9.64867138 44.3130217,9.72530161 44.4234287,9.7879254 C44.5311683,9.85193826 44.6492295,9.90796399 44.7749451,9.95808617 C45.0278838,10.0504592 45.3049451,10.0966457 45.6064768,10.0966457 C45.9163586,10.0966457 46.2024659,10.0504592 46.4630589,9.95808617 C46.714026,9.86617621 46.9329845,9.73189968 47.1173827,9.55595113 C47.2094659,9.47272283 47.2870523,9.38208617 47.3507219,9.28531447 C47.4139276,9.18946881 47.4746978,9.0822791 47.5333805,8.96548167 C47.6262755,8.73096077 47.6710414,8.47097363 47.6710414,8.18633055 C47.6710414,7.64112154 47.4867591,7.19731447 47.1173827,6.85328875 C46.7556606,6.49317299 46.2522186,6.31259421 45.6064768,6.31259421 Z M47.3127985,13.4464977 C47.4588094,13.7856617 47.5333805,14.1480926 47.5333805,14.5336746 L47.5333805,26.1474367 C47.5333805,26.5330186 47.5065906,26.8963756 47.4508072,27.2356553 C47.3964155,27.5747035 47.319409,27.8948836 47.2173521,28.1971215 C46.9915512,28.792337 46.6851486,29.2860347 46.2995359,29.6807614 C45.9215775,30.0822019 45.4341398,30.3926585 44.8374549,30.6109736 C44.5440414,30.7109865 44.2342755,30.7894688 43.9064177,30.8439897 C43.5790239,30.8972373 43.2255359,30.9253659 42.8490851,30.9253659 C42.6971595,30.9253659 42.5498729,30.9189994 42.4074571,30.9061505 C42.2638816,30.8934174 42.1181026,30.8789479 41.9674527,30.8614688 C41.9079582,30.8533659 41.8492755,30.8469994 41.7903608,30.8439897 C41.732142,30.8392437 41.6691683,30.8326457 41.6009757,30.8247743 C41.3249582,30.7652759 41.0605381,30.6614431 40.8085271,30.5100347 C40.5566322,30.3589736 40.3456759,30.166935 40.1790217,29.9318354 C40.0347503,29.7219704 39.9239954,29.4955524 39.8449013,29.2531601 C39.7653433,29.0099576 39.7254484,28.7588836 39.7254484,28.4987807 L39.7254484,27.8948836 L41.0605381,27.8948836 C41.19356,27.8948836 41.3330764,27.8907164 41.47584,27.8835395 C41.5927416,27.8747421 41.7261114,27.8677968 41.8729341,27.8643241 C42.0202208,27.8593466 42.1636803,27.8499704 42.306212,27.8323756 C42.3905249,27.8243884 42.4973368,27.7997325 42.6285031,27.7570186 C42.7585096,27.7156939 42.893735,27.6515653 43.0373105,27.5618547 C43.1799582,27.475501 43.3185468,27.3538418 43.4523805,27.1987293 C43.5877219,27.0419961 43.6914024,26.8425492 43.7674812,26.6005042 C43.825816,26.4321955 43.8556212,26.2530058 43.8556212,26.0601569 L43.8556212,11.7303048 L44.7128991,11.7303048 C45.0990917,11.7303048 45.4629013,11.8040412 45.8085031,11.9513981 C46.1523652,12.0969029 46.4520414,12.2984334 46.7084593,12.5536746 C46.9649932,12.8098418 47.1660917,13.1071023 47.3127985,13.4464977 Z" id="Fill-4" fill="#FCFDFE"></path>
            </g>
        </g>
    </g>
</svg>