<?xml version="1.0" encoding="UTF-8"?>
<svg width="74px" height="82px" viewBox="0 0 74 82" version="1.1" xmlns="http://www.w3.org/2000/svg" xmlns:xlink="http://www.w3.org/1999/xlink">
    <!-- Generator: Sketch 49.3 (51167) - http://www.bohemiancoding.com/sketch -->
    <title>Group 15</title>
    <desc>Created with Sketch.</desc>
    <defs></defs>
    <g id="ver3" stroke="none" stroke-width="1" fill="none" fill-rule="evenodd">
        <g id="LP" transform="translate(-1410.000000, -1788.000000)" fill="#1E3066">
            <g id="Group-17" transform="translate(367.000000, 1555.000000)">
                <g id="Group-15" transform="translate(1043.000000, 233.000000)">
                    <path d="M57.2758159,47.7003598 L59.0236604,47.7003598 C58.6360219,52.5192267 56.7163436,56.9116912 53.7552486,60.3923375 L52.5275339,59.1640443 C51.8176348,58.4547238 50.6668693,58.4547238 49.9575487,59.1640443 C49.2476496,59.8739434 49.2476496,61.024709 49.9575487,61.7340295 L51.185842,62.9623227 C47.7051957,65.9234178 43.3121526,67.8419389 38.4932857,68.2301559 L38.4932857,66.48289 C38.4932857,65.4790799 37.6798235,64.6656177 36.676592,64.6656177 C35.6727819,64.6656177 34.8593197,65.4790799 34.8593197,66.48289 L34.8593197,68.2301559 C30.0404529,67.8419389 25.6474097,65.9234178 22.167342,62.9623227 L23.3950567,61.7340295 C24.1049558,61.0241304 24.1049558,59.8739434 23.3950567,59.1640443 C22.6857361,58.4547238 21.5349706,58.4547238 20.8250715,59.1640443 L19.5967783,60.3923375 C16.6362618,56.9116912 14.7171621,52.5192267 14.3289451,47.7003598 L16.0767896,47.7003598 C17.0800211,47.7003598 17.8940618,46.8868976 17.8940618,45.8830876 C17.8940618,44.8792775 17.0800211,44.0658153 16.0767896,44.0658153 L14.3289451,44.0658153 C14.7171621,39.247527 16.6362618,34.8544839 19.5967783,31.3738376 L20.8250715,32.6015522 C21.1797318,32.9567911 21.6448979,33.1338319 22.1100641,33.1338319 C22.5746517,33.1338319 23.0403964,32.9567911 23.3950567,32.6015522 C24.1049558,31.8922317 24.1049558,30.7414662 23.3950567,30.0315671 L22.1667634,28.8038524 C25.6474097,25.8427574 30.0398743,23.9236577 34.8587412,23.5354406 L34.8587412,25.2832851 C34.8587412,26.2865166 35.6727819,27.1005574 36.6760134,27.1005574 C37.6798235,27.1005574 38.4932857,26.2865166 38.4932857,25.2832851 L38.4932857,23.5354406 C43.3121526,23.9236577 47.7046171,25.8427574 51.1852634,28.8038524 L49.9575487,30.0315671 C49.2476496,30.7414662 49.2476496,31.8922317 49.9575487,32.6015522 C50.312209,32.9567911 50.7779537,33.1338319 51.2419628,33.1338319 C51.7071289,33.1338319 52.1722951,32.9567911 52.5269554,32.6015522 L53.7552486,31.3738376 C56.7157651,34.8544839 58.6348648,39.247527 59.0236604,44.0658153 L57.2758159,44.0658153 C56.2720058,44.0658153 55.457965,44.8792775 55.457965,45.8830876 C55.457965,46.8868976 56.2725844,47.7003598 57.2758159,47.7003598 Z M36.676592,20.1907571 C22.5098524,20.1907571 10.9842615,31.716348 10.9842615,45.8830876 C10.9842615,60.0498271 22.5098524,71.575418 36.676592,71.575418 C50.8433316,71.575418 62.3683439,60.0498271 62.3683439,45.8830876 C62.3683439,31.716348 50.8433316,20.1907571 36.676592,20.1907571 Z M36.676592,77.184026 C19.4168446,77.184026 5.37565359,63.1422564 5.37565359,45.8830876 C5.37565359,28.6233402 19.4168446,14.5827277 36.676592,14.5827277 C53.9363394,14.5827277 67.9769518,28.6239187 67.9769518,45.8830876 C67.9769518,63.1422564 53.9357608,77.184026 36.676592,77.184026 Z M4.45515687,17.0514641 C2.63209895,12.9650603 3.8979989,8.0154378 7.69743444,5.3551965 C9.35907277,4.19170253 11.2660226,3.63338743 13.1550369,3.63338743 C15.585588,3.63338743 17.9877893,4.55851266 19.7975403,6.30867142 L4.45515687,17.0514641 Z M53.5550651,6.30867142 C56.7724644,3.19772807 61.856314,2.6949552 65.655171,5.3551965 C69.4551851,8.0154378 70.721085,12.9644818 68.8980271,17.0514641 L53.5550651,6.30867142 Z M58.1311447,18.3311575 L60.189686,15.3903079 L68.4446794,21.170758 C68.7518985,21.386563 69.1163957,21.4993833 69.4861,21.4993833 C69.5913992,21.4993833 69.6972769,21.4901263 69.801419,21.4721907 C70.277001,21.3882987 70.6987763,21.1198442 70.9747528,20.7246838 C75.1410135,14.774714 73.6899675,6.54403819 67.7405634,2.37778648 C61.7900022,-1.78846522 53.5598871,-0.336843848 49.3936264,5.61312595 C48.8185308,6.43526783 49.018715,7.5680995 49.8397015,8.14377238 L57.2129589,13.3063142 L55.1532605,16.2477423 C49.7905233,12.8914826 43.4563722,10.9480804 36.6767244,10.9480804 C29.8970767,10.9480804 23.5635042,12.8914826 18.2001884,16.2477423 L16.14049,13.3063142 L23.5131688,8.14377238 C24.3347339,7.5680995 24.5349181,6.43526783 23.959244,5.61312595 C19.7929832,-0.336843848 11.5628681,-1.78846522 5.61288546,2.37778648 C-0.33709722,6.54403819 -1.78814317,14.7741355 2.37753899,20.7241053 C2.654094,21.1192656 3.07586931,21.3877201 3.55087279,21.4716122 C3.65559341,21.4901263 3.7608926,21.4993833 3.86619179,21.4993833 C4.23647465,21.4993833 4.6015504,21.3859844 4.9081909,21.170758 L13.1631844,15.3903079 L15.2217256,18.3305789 C7.02343172,24.7300943 1.74169389,34.7005172 1.74169389,45.8830353 C1.74169389,58.0433295 7.98848142,68.771095 17.4399514,75.0294403 L14.5615807,79.1401497 C13.9859066,79.9622916 14.1860908,81.0951232 15.0082344,81.6707961 C15.3252891,81.8935439 15.6886292,81.9994214 16.0490764,81.9994214 C16.6212791,81.9994214 17.1853819,81.7292312 17.5388863,81.2247219 L20.5798343,76.8820077 C25.3998757,79.3947186 30.8748549,80.8185688 36.6761459,80.8185688 C42.4774369,80.8185688 47.9518375,79.3952972 52.7713003,76.8825863 L55.8116697,81.2247219 C56.1645956,81.7292312 56.7286984,82 57.3014797,82 C57.6613483,82 58.0252669,81.8935439 58.3423216,81.6713747 C59.1644653,81.0957018 59.3634923,79.9628701 58.7883968,79.1407282 L55.9117618,75.031176 C65.3638103,68.7728307 71.6105979,58.0444866 71.6105979,45.8830353 C71.611755,34.7005172 66.3294386,24.7300943 58.1311447,18.3311575 Z M36.676592,46.9615325 C36.0818273,46.9615325 35.5975685,46.4778523 35.5975685,45.882509 C35.5975685,45.2883229 36.0818273,44.8040641 36.676592,44.8040641 C37.2713567,44.8040641 37.7556155,45.2883229 37.7556155,45.882509 C37.7550369,46.4778523 37.2713567,46.9615325 36.676592,46.9615325 Z M41.5972863,38.391251 L38.1854892,41.8036266 C37.7145374,41.6294786 37.2065574,41.5334368 36.676592,41.5334368 C36.146048,41.5334368 35.6369109,41.6294786 35.1665377,41.8047837 L28.1525957,34.7902632 C27.4432751,34.0809426 26.2925096,34.0809426 25.5826105,34.7902632 C24.8732899,35.4995837 24.8732899,36.6503493 25.5826105,37.3602484 L32.597131,44.3747689 C32.4224045,44.8445636 32.3269413,45.3531221 32.3269413,45.8830876 C32.3269413,48.2818175 34.2784406,50.2327383 36.676592,50.2327383 C39.075322,50.2327383 41.0268213,48.2818175 41.0268213,45.8830876 C41.0268213,45.3525436 40.9307795,44.843985 40.7560529,44.3736118 L44.1684286,40.9618147 C44.8777491,40.2519156 44.8777491,39.1011501 44.1684286,38.391251 C43.4579509,37.6819304 42.3071854,37.6819304 41.5972863,38.391251 Z" id="Page-1"></path>
                </g>
            </g>
        </g>
    </g>
</svg>