<?xml version="1.0" encoding="UTF-8"?>
<svg width="96px" height="52px" viewBox="0 0 96 52" version="1.1" xmlns="http://www.w3.org/2000/svg" xmlns:xlink="http://www.w3.org/1999/xlink">
    <!-- Generator: Sketch 49.3 (51167) - http://www.bohemiancoding.com/sketch -->
    <title>Group 14</title>
    <desc>Created with Sketch.</desc>
    <defs></defs>
    <g id="ver3" stroke="none" stroke-width="1" fill="none" fill-rule="evenodd">
        <g id="LP" transform="translate(-1159.000000, -1803.000000)" fill="#1E3066">
            <g id="Group-17" transform="translate(367.000000, 1555.000000)">
                <g id="Group-14" transform="translate(792.000000, 248.000000)">
                    <path d="M91.0259831,0.676056338 L14.3720113,0.676056338 C11.7306592,0.676056338 9.58147606,2.82523944 9.58147606,5.46659155 L9.58147606,11.8539718 C9.58147606,12.7362254 10.2967437,13.4508169 11.1783211,13.4508169 C12.0598986,13.4508169 12.7751662,12.7362254 12.7751662,11.8539718 L12.7751662,5.46659155 C12.7751662,4.5863662 13.4917859,3.86974648 14.3720113,3.86974648 L19.1632225,3.86974648 L19.1632225,11.8546479 C19.1632225,12.7362254 19.8784901,13.451493 20.7593915,13.451493 C21.6416451,13.451493 22.3569127,12.7362254 22.3569127,11.8546479 L22.3569127,3.86974648 L63.8775887,3.86974648 L63.8775887,11.8546479 C63.8775887,12.7362254 64.5928563,13.451493 65.4744338,13.451493 C66.3560113,13.451493 67.0712789,12.7362254 67.0712789,11.8546479 L67.0712789,3.86974648 L83.0404056,3.86974648 L83.0404056,11.8546479 C83.0404056,12.7362254 83.7563493,13.451493 84.6379268,13.451493 C85.5188282,13.451493 86.2347718,12.7362254 86.2347718,11.8546479 L86.2347718,3.86974648 L91.025307,3.86974648 C91.9055324,3.86974648 92.6221521,4.5863662 92.6221521,5.46659155 L92.6221521,16.6451831 L87.8309408,16.6451831 C86.9507155,16.6451831 86.2347718,17.3611268 86.2347718,18.2420282 L86.2347718,32.6143099 L84.6379268,32.6143099 C83.7563493,32.6143099 83.0404056,33.3302535 83.0404056,34.2111549 C83.0404056,35.0927324 83.7563493,35.8086761 84.6379268,35.8086761 L89.429138,35.8086761 L89.429138,46.9872676 C89.429138,47.867493 88.7118423,48.5841127 87.8316169,48.5841127 L38.3267155,48.5841127 L38.3267155,40.5992113 C38.3267155,39.7176338 37.6114479,39.0023662 36.7298704,39.0023662 C35.848293,39.0023662 35.1330254,39.7176338 35.1330254,40.5992113 L35.1330254,48.5841127 L31.9386592,48.5841127 L31.9386592,40.5992113 C31.9386592,39.7176338 31.2233915,39.0023662 30.3418141,39.0023662 C29.4609127,39.0023662 28.744969,39.7176338 28.744969,40.5992113 L28.744969,48.5841127 L25.5512789,48.5841127 L25.5512789,40.5992113 C25.5512789,39.7176338 24.8353352,39.0023662 23.9544338,39.0023662 C23.0728563,39.0023662 22.3575887,39.7176338 22.3575887,40.5992113 L22.3575887,48.5841127 L7.98463099,48.5841127 C7.10508169,48.5841127 6.38778592,47.867493 6.38778592,46.9872676 L6.38778592,40.5998873 C6.38778592,39.7176338 5.67251831,39.0023662 4.79094085,39.0023662 C3.90936338,39.0023662 3.19409577,39.7176338 3.19409577,40.5998873 L3.19409577,46.9872676 C3.19409577,49.6286197 5.34327887,51.7778028 7.98463099,51.7778028 L87.832293,51.7778028 C90.4743211,51.7778028 92.6235042,49.6286197 92.6235042,46.9872676 L92.6235042,35.8086761 C92.6235042,33.7338592 90.9793352,32.6143099 89.4298141,32.6143099 L89.4298141,19.8388732 L92.6235042,19.8388732 C94.1723493,19.8388732 95.8171944,18.7193239 95.8171944,16.644507 L95.8171944,5.46659155 C95.8171944,2.82523944 93.6673352,0.676056338 91.0259831,0.676056338" id="Fill-1"></path>
                    <path d="M3.19341972,31.0180732 L3.19341972,21.4363268 C3.19341972,20.5256789 3.88029296,19.8394817 4.79026479,19.8394817 L15.9688563,19.8394817 L15.9688563,32.6149183 L4.79026479,32.6149183 C3.89449014,32.6149183 3.19341972,31.9138479 3.19341972,31.0180732 Z M19.1632225,32.6149183 L41.5204056,32.6149183 L41.5204056,19.8394817 L19.1632225,19.8394817 L19.1632225,32.6149183 Z M70.2656451,19.8394817 L76.6530254,19.8394817 L76.6530254,40.8087211 L74.3456451,39.270693 C73.8088563,38.9137352 73.1098141,38.9137352 72.5730254,39.270693 L70.2656451,40.8087211 L70.2656451,19.8394817 Z M62.2807437,35.8086085 C63.1623211,35.8086085 63.8775887,35.0933408 63.8775887,34.2124394 C63.8775887,33.3301859 63.1623211,32.6149183 62.2807437,32.6149183 L44.7147718,32.6149183 L44.7147718,19.8394817 L67.0712789,19.8394817 L67.0712789,43.7935099 C67.0712789,44.383031 67.396462,44.9238761 67.9149972,45.2017352 C68.4328563,45.4782423 69.064969,45.4478197 69.5551099,45.1219606 L73.4600113,42.5191437 L77.3642366,45.1219606 C77.6319549,45.3011155 77.9409127,45.3903549 78.2498704,45.3903549 C78.5088,45.3903549 78.7677296,45.3281577 79.0043493,45.2017352 C79.5228845,44.9238761 79.8480676,44.383031 79.8480676,43.7935099 L79.8480676,19.8394817 L81.4442366,19.8394817 C82.3264901,19.8394817 83.0410817,19.123538 83.0410817,18.2426366 C83.0410817,17.3610592 82.3264901,16.6451155 81.4442366,16.6451155 L4.79094085,16.6451155 C2.10496901,16.6451155 -0.000270422535,18.7503549 -0.000270422535,21.4363268 L-0.000270422535,31.0180732 C-0.000270422535,33.6594254 2.14958873,35.8092845 4.79094085,35.8092845 L62.2807437,35.8092845 L62.2807437,35.8086085 Z" id="Fill-4"></path>
                    <path d="M33.5357746,23.0327662 C32.6541972,23.0327662 31.9389296,23.7487099 31.9389296,24.6296113 L31.9389296,27.8239775 C31.9389296,28.7055549 32.6541972,29.4208225 33.5357746,29.4208225 C34.4173521,29.4208225 35.1326197,28.7055549 35.1326197,27.8239775 L35.1326197,24.6296113 C35.1326197,23.7487099 34.4173521,23.0327662 33.5357746,23.0327662" id="Fill-7"></path>
                    <path d="M27.1479211,23.0327662 C26.2663437,23.0327662 25.5510761,23.7487099 25.5510761,24.6296113 L25.5510761,27.8239775 C25.5510761,28.7055549 26.2663437,29.4208225 27.1479211,29.4208225 C28.0294986,29.4208225 28.7447662,28.7055549 28.7447662,27.8239775 L28.7447662,24.6296113 C28.7447662,23.7487099 28.0294986,23.0327662 27.1479211,23.0327662" id="Fill-9"></path>
                </g>
            </g>
        </g>
    </g>
</svg>