<?xml version="1.0" encoding="UTF-8"?>
<svg width="106px" height="80px" viewBox="0 0 106 80" version="1.1" xmlns="http://www.w3.org/2000/svg" xmlns:xlink="http://www.w3.org/1999/xlink">
    <!-- Generator: Sketch 49.3 (51167) - http://www.bohemiancoding.com/sketch -->
    <title>Group 10</title>
    <desc>Created with Sketch.</desc>
    <defs></defs>
    <g id="ver3" stroke="none" stroke-width="1" fill="none" fill-rule="evenodd">
        <g id="LP" transform="translate(-434.000000, -1789.000000)" fill="#1E3066">
            <g id="Group-17" transform="translate(367.000000, 1555.000000)">
                <g id="Group-10" transform="translate(67.000000, 234.000000)">
                    <g id="Group-33">
                        <path d="M94.042807,39.9499263 L92.5454176,37.5364091 C92.5454176,37.5364091 91.9636048,36.5979569 90.7999792,34.7210525 L77.9452512,13.998209 L76.1270517,11.0150059 C76.0948054,10.9620888 76.0460224,10.9248814 76.008815,10.8769253 L74.548633,8.52128622 L81.9404944,3.93568632 L101.434668,35.3643264 L94.042807,39.9499263 Z M51.1931624,73.0371875 C51.1890282,73.0421485 51.1865477,73.0487632 51.1824136,73.0553778 C51.1865477,73.0487632 51.1890282,73.0421485 51.1931624,73.0371875 Z M76.8645842,54.3872071 C74.0517081,52.3201318 60.3122718,42.2915092 58.213777,40.759393 C58.072389,40.6485977 57.9855719,40.5807976 57.9748231,40.5725293 C57.2563077,40.009458 56.2169822,40.1376167 55.6539109,40.8561321 C55.0908396,41.5746475 55.2173446,42.6139729 55.9366868,43.1770442 C55.9854698,43.2274809 56.0648455,43.285359 56.2037529,43.3862323 C58.306382,45.0316242 71.375259,55.2537251 74.2236888,57.3513932 C75.1852922,58.0591597 75.6615464,59.143134 75.4970072,60.2494328 C75.3308143,61.3656534 74.5478062,62.2561495 73.3447683,62.6968499 C72.0218401,62.6993304 68.4582023,60.6735966 64.195893,57.8069766 C60.6868259,54.9006687 56.5452338,51.9893998 53.4007988,49.8776756 C53.2660255,49.8024341 53.214762,49.773495 53.1610181,49.7486901 C52.9625788,49.6742754 52.9104885,49.656912 52.8575714,49.6453363 C52.6475565,49.6097827 52.5962931,49.6039948 52.5442028,49.6023412 C52.3300538,49.608129 52.2787903,49.61309 52.2275268,49.6205314 C52.0208193,49.6668339 51.9703827,49.68089 51.9207729,49.6990803 C51.725641,49.7842438 51.6793385,49.8073951 51.633036,49.8346804 C51.4552675,49.958705 51.413926,49.9909513 51.375065,50.026505 C51.2320234,50.1745076 51.2055648,50.1951784 51.1857209,50.2208101 C51.0873281,50.3564103 51.0765793,50.3878298 51.0592159,50.4167689 C50.9566889,50.6152081 50.9384987,50.6656447 50.9211352,50.7160814 C50.8616035,50.9236157 50.8533352,50.9765329 50.8467205,51.02945 C50.8293571,51.2394648 50.8310108,51.292382 50.8343181,51.3461259 C50.8582961,51.5544871 50.8698718,51.6049238 50.8822742,51.6553604 C50.9459401,51.8587606 50.9666109,51.9058899 50.9889353,51.9530192 C51.0922891,52.1431902 51.1228818,52.1861853 51.1543013,52.2291805 C51.2940356,52.3978538 51.3345503,52.4350612 51.375065,52.4722686 C54.4409511,54.9238199 58.4089089,57.9599401 62.25863,60.5429575 C65.5188212,63.2260212 67.8446943,65.5014577 68.016675,66.4663685 C68.0034457,67.7719333 67.4114353,68.8228344 66.3936074,69.3478715 C65.3997576,69.861333 64.2206979,69.7604597 63.2409042,69.0783249 C60.2684498,67.0120764 49.1591602,58.1186915 48.653967,57.7143716 C48.4571815,57.5820788 48.4100521,57.5456982 48.3587887,57.5192397 C48.1496006,57.4340762 48.1049518,57.4117518 48.0578225,57.3985225 C47.8420198,57.3563541 47.79241,57.3431249 47.7428002,57.3381639 C47.5394,57.3381639 47.4815219,57.3348566 47.4236438,57.3406444 C47.2417412,57.3745444 47.1755948,57.3844664 47.1102752,57.4043103 C46.9498701,57.4671494 46.8804164,57.4919543 46.8159236,57.5266811 C46.6662674,57.6225934 46.6034283,57.6598008 46.546377,57.7069301 C46.4091232,57.8425302 46.3611671,57.8813913 46.3198256,57.9310011 C46.1966279,58.1153842 46.15694,58.1666477 46.128001,58.2228721 C46.0502789,58.4138699 46.0238204,58.4676138 46.0081106,58.5230114 C45.9675959,58.729719 45.9535398,58.7826361 45.9485788,58.8363801 C45.9494057,59.0497022 45.9460984,59.1017925 45.9510593,59.153056 C45.9924008,59.3647245 45.9990155,59.4151612 46.0130716,59.4639441 C46.0949278,59.6648639 46.1106375,59.7136468 46.1346156,59.7591225 C46.2536792,59.9410251 46.2801377,59.9873276 46.3148646,60.0303228 C46.463694,60.1808059 46.497594,60.223801 46.541416,60.2593547 L57.8549327,69.6074962 C57.8640278,69.9770892 57.8086302,70.5285849 57.4869933,71.0329513 C56.9884147,71.8151326 55.9614917,72.3451307 54.4616219,72.6047554 C53.8927627,72.6055822 53.0320326,72.2095306 51.9050631,71.4893615 C52.1150779,70.7658852 52.1853585,70.0002405 52.1026755,69.2279811 C51.9364826,67.6718868 51.1741453,66.2745439 49.9562245,65.2914429 C48.9177258,64.453864 47.6121611,63.9924928 46.2793109,63.9924928 C45.8328226,63.9924928 45.392949,64.0429294 44.9679583,64.1396685 C44.7678654,62.4860083 43.9534377,60.9042822 42.5577485,59.7773128 C41.3836497,58.8305923 39.9069311,58.3088624 38.4004466,58.3088624 C37.9316339,58.3088624 37.4719164,58.3626064 37.0237744,58.456865 C37.0882672,57.9483645 37.1014965,57.429942 37.045272,56.9073854 C36.8575816,55.147064 35.9960246,53.565338 34.6185256,52.4540783 C33.4436,51.5073578 31.9677082,50.9848012 30.4612237,50.9848012 C30.20656,50.9848012 29.9543768,50.9988573 29.705501,51.0269695 C29.7220376,50.6524154 29.7195571,50.2753809 29.6782156,49.895039 C29.4682007,47.9304907 28.5090778,46.1643815 26.9769615,44.9183485 C25.6358431,43.8360279 23.9788755,43.2506321 22.2888347,43.2506321 C22.082954,43.2506321 21.8795538,43.2688224 21.6761536,43.2845322 C19.9431176,41.4588912 18.2241378,39.624982 16.5448458,37.8026484 L31.9065228,13.0357787 L33.8305565,13.8311893 C31.5733102,16.8962486 29.9262646,21.8762465 29.8162962,27.490423 C29.8088547,27.9369113 29.4615861,31.8296276 31.7791909,33.9438322 C32.8424945,34.9145308 34.2233008,35.337041 35.7711268,35.1716749 C42.8148927,34.4250473 47.0193239,30.6150141 47.0193239,24.9793399 C47.0193239,24.7527885 47.0449556,24.5932103 47.0813361,24.4766272 C47.2136289,24.3236636 47.3599779,24.190544 47.5179024,24.0789219 C48.2554349,23.7928387 49.6494705,23.966473 51.034411,24.3294515 C52.0142047,24.7511348 51.9976681,24.6304176 54.2656631,26.0600069 C56.5336582,27.490423 82.2637849,50.5441007 82.4432071,50.6292642 C83.0922687,51.4742846 83.4494593,52.1415365 83.417213,52.5475101 C83.1385712,53.9440262 82.1298385,54.6054903 81.3327742,54.9147248 C79.8651507,55.4852376 78.0701025,55.2702617 76.8645842,54.3872071 Z M45.3524343,75.0587872 C44.497492,76.1187834 42.8306024,76.3015129 41.7656452,75.4424364 C40.6709221,74.558555 40.4989415,72.9495435 41.3828229,71.8548204 L44.2924381,68.2490143 C44.7786142,67.6454283 45.5029174,67.2998133 46.2793109,67.2998133 C46.8671871,67.2998133 47.4203365,67.4949452 47.8792272,67.8661919 C48.4100521,68.2936631 48.741611,68.9030369 48.8143721,69.5802108 C48.8863063,70.2573846 48.6903475,70.9221561 48.2628764,71.452981 L45.3524343,75.0587872 Z M31.6559932,69.5520985 C31.5625614,68.6698708 31.8172251,67.8041796 32.3745086,67.1146033 L35.8141219,62.8514672 C36.4474738,62.0659785 37.3900602,61.616183 38.4004466,61.616183 C39.1644376,61.616183 39.8846067,61.8708466 40.4807512,62.3520618 C41.9045527,63.5005288 42.1286236,65.5948895 40.9785029,67.0195179 L37.5397164,71.282654 C36.9055377,72.0673158 35.9629514,72.5179382 34.952565,72.5179382 C34.1877471,72.5179382 33.4684049,72.2632745 32.8722603,71.7812326 C32.182684,71.2247759 31.7510787,70.4326726 31.6559932,69.5520985 Z M24.2930709,60.0071715 C24.3666588,59.9236617 24.4460345,59.8467665 24.5163151,59.7599493 L28.0716846,55.3529447 C28.0923554,55.3281398 28.108892,55.3000276 28.1295627,55.2743959 C28.7488585,54.6567538 29.5723813,54.2921217 30.4612237,54.2921217 C31.2252147,54.2921217 31.9445569,54.5459585 32.5415283,55.0280005 C33.2311046,55.5844572 33.66271,56.3765604 33.7569686,57.2579613 C33.8512272,58.1393623 33.5965635,59.0050534 33.03928,59.6954566 L29.5996667,63.9577659 C28.9663148,64.7432545 28.0229016,65.1938769 27.0133421,65.1938769 C26.2485242,65.1938769 25.529182,64.9400401 24.9330374,64.4579981 C23.577036,63.3641019 23.3248528,61.421051 24.2930709,60.0071715 Z M15.5179228,52.499554 L19.074946,48.0933762 C19.8620883,47.1177166 21.0337066,46.5579526 22.2888347,46.5579526 C23.2322479,46.5579526 24.1210903,46.8688408 24.8594496,47.4591975 C25.7358895,48.1669641 26.2725023,49.1508919 26.3899121,50.2464419 C26.4998805,51.2758454 26.2146241,52.2812708 25.606904,53.1105814 C25.5035502,53.2230303 25.3968892,53.3313451 25.30015,53.4504086 L21.8605367,57.7127179 C21.7803342,57.8127644 21.7100536,57.9185986 21.6364657,58.0219524 C20.8666869,58.7867703 19.8298419,59.2183756 18.7276773,59.2183756 C17.7842642,59.2183756 16.8962486,58.9066606 16.1578893,58.3171307 C14.3686289,56.8734853 14.0899871,54.2697973 15.5179228,52.499554 Z M11.3234135,39.9457921 L3.93072534,35.3593654 L23.4248993,3.93072534 L30.8175875,8.51632523 L11.3234135,39.9457921 Z M79.1714403,22.3615957 L88.3409522,36.7074109 L89.0232347,37.8026484 L82.8351246,46.1197327 C81.8065479,45.0638706 80.5340563,43.8707547 78.9275254,42.4982167 C78.7993667,42.3890751 78.6720349,42.2815872 78.5438762,42.1732725 C76.2643055,39.9490994 73.4911173,37.3123381 70.5459484,34.6681354 C64.8292448,29.5368276 60.102257,25.811131 56.2889164,23.4356481 C56.2889164,23.4356481 53.122157,21.4429875 51.8306484,21.1056408 C50.7268302,20.666594 49.7635731,20.5136304 48.5497864,20.5136304 C47.335173,20.5136304 46.6274064,20.7327404 45.9370032,21.1519433 C45.7765982,21.2288385 45.6178468,21.3098678 45.4690174,21.4082606 C45.0514682,21.683595 44.5942311,22.1069321 44.2494429,22.7262278 C43.5441568,23.6969264 43.582191,24.4104808 43.1753906,26.5602391 C42.7437853,29.3565786 40.6188318,31.1268219 35.3643264,31.798208 C34.7615672,31.8709691 34.1488861,31.9528252 33.7958296,31.2367904 C32.1181913,27.8426527 35.3684605,17.52712 36.3135273,16.2852211 C39.1818011,13.2152009 42.9265147,11.1770646 47.4889634,10.1840416 C57.3009565,8.55518625 69.0799785,11.7740359 72.8329605,12.9282908 C73.1165632,13.0308177 73.3670928,13.1242495 73.55561,13.1970106 L75.1646215,15.7899499 L79.1714403,22.3615957 Z M83.879411,0.787117187 C83.6487254,0.415043629 83.2783055,0.148804327 82.8516612,0.0487578815 C82.4250168,-0.050461734 81.9752212,0.0222993174 81.6031477,0.253811754 L71.4000639,6.58319639 C70.6526094,7.04622126 70.4103482,8.00617104 70.8229364,8.77016208 C66.9078958,7.58531451 60.8902261,6.17060816 54.4814658,6.17060816 C51.7165458,6.17060816 49.136009,6.43271331 46.7464699,6.95444312 C43.3382761,7.54562666 40.0995825,8.66680832 37.3586406,10.5693444 C37.0196403,10.804991 36.6930424,11.0513864 36.3747128,11.3052233 L33.6726319,10.1881758 L34.5002889,8.85449876 C34.981504,8.07810527 34.7425501,7.05945055 33.9661566,6.57823541 L23.7630728,0.248850773 C22.988333,-0.233191193 21.9688514,0.00658954492 21.4859826,0.782156206 L0.248850773,35.0211919 C-0.233191193,35.7984122 0.00658954492,36.8170669 0.782156206,37.298282 L10.98524,43.6276667 C11.2489988,43.791379 11.5516186,43.8765425 11.8575458,43.8765425 C11.983224,43.8765425 12.109729,43.8616596 12.2345803,43.8327205 C12.6612247,43.7326741 13.0308177,43.4672616 13.2623302,43.0943612 L14.7365683,40.7180514 C15.4509495,41.4836961 16.6672166,42.7851268 18.2456354,44.448709 C17.5940932,44.8712192 17.0029097,45.3946027 16.5010238,46.0163789 L12.9448274,50.4225567 C10.3775199,53.6050258 10.8694838,58.2790966 14.0387237,60.8571529 C15.380669,61.9403004 17.0376365,62.5256961 18.7276773,62.5256961 C19.3031511,62.5256961 19.8695297,62.4587229 20.4168913,62.331391 C20.5409158,64.1074221 21.3652654,65.8288825 22.8552133,67.0319203 C24.0301389,67.9786408 25.5060307,68.5011974 27.0133421,68.5011974 C27.4813279,68.5011974 27.9418723,68.4482803 28.3891874,68.3540217 C28.3255215,68.8625222 28.3122922,69.3801179 28.3676898,69.9026745 C28.5553802,71.662169 29.4177641,73.2447219 30.7952631,74.3551548 C31.9693618,75.3027021 33.4460805,75.8252587 34.952565,75.8252587 C35.9455879,75.8252587 36.9055377,75.6044951 37.7761898,75.196041 C38.1085756,76.2692665 38.7501957,77.2589822 39.6886479,78.0163586 C40.7271466,78.8539375 42.0327113,79.3153087 43.3647347,79.3153087 C45.1457268,79.3153087 46.809309,78.5207249 47.9271833,77.1357845 L50.2282516,74.2832205 C52.41191,75.6557586 53.5785673,75.9368808 54.3177534,75.9368808 C54.592261,75.9368808 54.8080637,75.8996734 54.9982346,75.8666002 C57.4795518,75.4399559 59.2547561,74.4113792 60.2750645,72.8114629 C60.5636282,72.35836 60.7513186,71.9036034 60.8877456,71.462903 C61.056419,71.5852738 61.2151703,71.6977227 61.353251,71.7944618 C62.47774,72.5758163 63.7775169,72.9735216 65.0698524,72.9735216 C66.0463388,72.9726948 67.018691,72.7469702 67.9100139,72.2864258 C70.0209112,71.1983173 71.2975369,69.0353297 71.3239955,66.5019222 C71.3281297,66.1778048 71.248754,65.8230947 71.1098465,65.4468869 C72.0383767,65.7767922 72.8602459,65.9644826 73.5324588,65.9644826 C73.8549225,65.9644826 74.1434862,65.9223143 74.3940158,65.8338434 C76.7835548,64.9913035 78.418198,63.0854601 78.7679472,60.7364357 C78.8812229,59.9732715 78.8357472,59.2117609 78.671208,58.4791894 C78.9796157,58.5130895 79.289677,58.5362407 79.6005651,58.5362407 C80.5952417,58.5362407 81.5948794,58.3601259 82.5283706,57.9979743 C84.7136826,57.1504734 86.2201671,55.4009009 86.6608676,53.1965718 C86.8419434,52.2862318 86.7369359,51.0435061 85.3048662,49.0103308 L90.9951111,41.3108886 L92.1038903,43.0993222 C92.3354027,43.4713958 92.7049958,43.7368082 93.1316402,43.8368547 C93.2564915,43.8657937 93.3829965,43.8806767 93.5086747,43.8806767 C93.8146018,43.8806767 94.1163948,43.7955132 94.3809805,43.6318008 L104.584064,37.303243 C105.359631,36.8220279 105.598585,35.8025463 105.11737,35.0261528 L83.879411,0.787117187 Z" id="Fill-1"></path>
                    </g>
                </g>
            </g>
        </g>
    </g>
</svg>