<?xml version="1.0" encoding="UTF-8"?>
<svg width="99px" height="86px" viewBox="0 0 99 86" version="1.1" xmlns="http://www.w3.org/2000/svg" xmlns:xlink="http://www.w3.org/1999/xlink">
    <!-- Generator: Sketch 49.3 (51167) - http://www.bohemiancoding.com/sketch -->
    <title>Group 12</title>
    <desc>Created with Sketch.</desc>
    <defs></defs>
    <g id="ver3" stroke="none" stroke-width="1" fill="none" fill-rule="evenodd">
        <g id="LP" transform="translate(-678.000000, -1786.000000)" fill="#1E3066">
            <g id="Group-17" transform="translate(367.000000, 1555.000000)">
                <g id="Group-12" transform="translate(310.000000, 230.000000)">
                    <g id="Group-32">
                        <path d="M54.6188798,24.3335434 C54.6188798,23.3121281 53.7907683,22.4840167 52.769353,22.4840167 C51.7479377,22.4840167 50.9204103,23.3121281 50.9204103,24.3335434 C50.9204103,25.3549587 51.7479377,26.1830702 52.769353,26.1830702 C53.7907683,26.1830702 54.6188798,25.3549587 54.6188798,24.3335434 Z M52.769353,41.5002119 C57.1913981,36.8369751 60.9424276,31.8963384 60.367772,27.0187736 C59.9659802,23.6087999 57.4109819,20.3144581 52.769353,17.2169242 C48.1277241,20.3144581 45.5727258,23.6087999 45.1709341,27.0187736 C44.5962785,31.8963384 48.347308,36.8369751 52.769353,41.5002119 Z M52.769353,45.7347931 C50.8649303,47.8214237 49.0732195,50.1258862 47.8439003,51.7815251 L57.6953897,51.7815251 C56.4654866,50.1258862 54.6737758,47.8214237 52.769353,45.7347931 Z M50.7551384,43.6131225 C42.5972478,34.9716803 41.8368803,30.3610034 42.270792,26.6771339 C42.8098237,22.0997449 45.9891176,18.0321876 51.9897136,14.2420302 C52.4650892,13.9412704 53.0736168,13.9412704 53.5489925,14.2420302 C59.5495885,18.0321876 62.7288824,22.0997449 63.267914,26.6771339 C63.9838975,32.7565698 59.7446444,38.399174 54.7864877,43.6160425 C58.4271413,47.5720559 61.6035151,52.2066768 61.748931,52.4186686 C62.0537788,52.8654283 62.0864828,53.444756 61.833611,53.9236356 C61.5807391,54.4019313 61.0837555,54.7015231 60.5429718,54.7015231 L44.9963182,54.7015231 C44.4555346,54.7015231 43.9585509,54.4019313 43.7056791,53.9236356 C43.4528073,53.44534 43.4855112,52.8654283 43.790359,52.4186686 C43.9357749,52.2066768 47.1133168,47.5703039 50.7551384,43.6131225 Z M21.6515178,76.4812046 C22.2600454,76.1991328 22.936901,76.0402849 23.6505485,76.0402849 L24.1119082,76.0402849 L24.1119082,25.6831665 C24.1119082,24.918127 24.7309478,24.2985034 25.4959873,24.2985034 C26.2604428,24.2985034 26.8800663,24.918127 26.8800663,25.6831665 L26.8800663,76.0402849 L78.6580557,76.0402849 L78.6580557,5.57255596 L26.8800663,5.57255596 L26.8800663,20.1462662 C26.8800663,20.9113057 26.2604428,21.5303453 25.4959873,21.5303453 C24.7309478,21.5303453 24.1119082,20.9113057 24.1119082,20.1462662 L24.1119082,5.57255596 L23.6505485,5.57255596 C22.5479572,5.57255596 21.6515178,6.46899536 21.6515178,7.57158663 L21.6515178,76.4812046 Z M21.6515178,80.8074737 C21.6515178,81.9100649 22.5479572,82.8065043 23.6505485,82.8065043 L80.0427188,82.8065043 C80.8071743,82.8065043 81.4262139,83.4261279 81.4262139,84.1905834 C81.4262139,84.9550389 80.8071743,85.5746625 80.0427188,85.5746625 L23.6505485,85.5746625 C21.0219663,85.5746625 18.8833597,83.4360559 18.8833597,80.8074737 L18.8833597,7.57158663 C18.8833597,4.94300438 21.0219663,2.80439781 23.6505485,2.80439781 L80.0427188,2.80439781 C80.8071743,2.80439781 81.4262139,3.4240214 81.4262139,4.18847689 L81.4262139,77.4243639 C81.4262139,78.1894034 80.8071743,78.808443 80.0427188,78.808443 L23.6505485,78.808443 C22.5479572,78.808443 21.6515178,79.7048824 21.6515178,80.8074737 Z M34.7085811,63.7786291 C34.1461895,63.2606214 34.1099815,62.384622 34.6279892,61.8222304 C35.1454128,61.2598387 36.0208282,61.2236308 36.5832199,61.7416384 L41.3533287,66.1327315 L46.1234375,61.7416384 C46.6525411,61.2545827 47.4683886,61.2545827 47.9980762,61.7416384 L52.768185,66.1327315 L57.5382938,61.7416384 C58.0679815,61.2545827 58.8832449,61.2545827 59.4135166,61.7416384 L64.1842094,66.1327315 L68.9549022,61.7416384 C69.5178778,61.2236308 70.3932933,61.2598387 70.9107169,61.8222304 C71.4287246,62.38579 71.3925166,63.2606214 70.830125,63.7786291 L65.1215288,69.0322895 C64.856977,69.2764014 64.5205932,69.3984573 64.1847934,69.3984573 C63.8484096,69.3984573 63.5120259,69.2764014 63.24689,69.0322895 L58.4756132,64.6411965 L53.7060884,69.0322895 C53.1764008,69.5205132 52.3611373,69.5205132 51.8314497,69.0322895 L47.0613408,64.6417805 L42.291232,69.0322895 C41.7609604,69.5205132 40.9456969,69.5205132 40.4165933,69.0322895 L34.7085811,63.7786291 Z" id="Fill-1" transform="translate(50.154787, 44.189530) rotate(-70.000000) translate(-50.154787, -44.189530) "></path>
                    </g>
                </g>
            </g>
        </g>
    </g>
</svg>