<?xml version="1.0" encoding="UTF-8"?>
<svg width="81px" height="74px" viewBox="0 0 81 74" version="1.1" xmlns="http://www.w3.org/2000/svg" xmlns:xlink="http://www.w3.org/1999/xlink">
    <!-- Generator: Sketch 49.3 (51167) - http://www.bohemiancoding.com/sketch -->
    <title>Group 13</title>
    <desc>Created with Sketch.</desc>
    <defs></defs>
    <g id="ver3" stroke="none" stroke-width="1" fill="none" fill-rule="evenodd">
        <g id="LP" transform="translate(-927.000000, -1792.000000)" fill="#1E3066">
            <g id="Group-17" transform="translate(367.000000, 1555.000000)">
                <g id="Group-13" transform="translate(560.000000, 237.000000)">
                    <g id="Group-31">
                        <path d="M54.8602488,50.6262193 C54.8602488,51.941916 54.7680726,53.070238 54.5829114,54.0128146 C54.3985589,54.9553912 54.12769,55.7187397 53.7703048,56.3020455 C53.4137281,56.8853513 52.9762951,57.3065372 52.4596228,57.5672325 C51.9429505,57.8271132 51.3518903,57.9574609 50.6864422,57.9574609 C49.9967373,57.9574609 49.3878887,57.8271132 48.8582794,57.5672325 C48.32867,57.3065372 47.885577,56.8853513 47.5290004,56.3020455 C47.1716152,55.7187397 46.8942778,54.9553912 46.6977967,54.0128146 C46.5005072,53.070238 46.4026709,51.941916 46.4026709,50.6262193 L46.4026709,45.0440804 C46.4026709,43.7047581 46.5005072,42.5764361 46.6977967,41.6582998 C46.8942778,40.7401634 47.1716152,40.0020697 47.5290004,39.4432041 C47.885577,38.8859678 48.3230101,38.4827047 48.8396824,38.2342295 C49.3571633,37.9865689 49.9603519,37.8619239 50.6492483,37.8619239 C51.3146963,37.8619239 51.9114165,37.9865689 52.4410258,38.2342295 C52.9706351,38.4827047 53.4137281,38.8859678 53.7703048,39.4432041 C54.12769,40.0020697 54.3985589,40.7401634 54.5829114,41.6582998 C54.7680726,42.5764361 54.8602488,43.7047581 54.8602488,45.0440804 L54.8602488,50.6262193 Z M56.8735728,36.8582469 C56.1216084,35.9645507 55.2168255,35.3128124 54.1584154,34.9038466 C53.0991968,34.4940661 51.9292049,34.2895832 50.6492483,34.2895832 C49.3442262,34.2895832 48.1685744,34.4940661 47.1222928,34.9038466 C46.0760111,35.3128124 45.1712282,35.9645507 44.4079439,36.8582469 C43.6438511,37.7503138 43.060068,38.9234428 42.6533604,40.3743752 C42.2474613,41.8253077 42.0437032,43.6061827 42.0437032,45.7145562 L42.0437032,49.9940331 C42.0437032,52.0779664 42.2531212,53.8515093 42.6719573,55.3154766 C43.0899848,56.7794438 43.6753851,57.9704956 44.4265409,58.8878173 C45.1768881,59.8067684 46.0824797,60.4690975 47.1408897,60.878878 C48.1992998,61.2878438 49.3814202,61.4931413 50.6864422,61.4931413 C51.9663988,61.4931413 53.1363907,61.2878438 54.1956093,60.878878 C55.2540194,60.4690975 56.1531424,59.8067684 56.8913612,58.8878173 C57.6303886,57.9704956 58.2085117,56.7794438 58.6273478,55.3154766 C59.0461839,53.8515093 59.2556019,52.0779664 59.2556019,49.9940331 L59.2556019,45.7145562 C59.2556019,43.6061827 59.0461839,41.8253077 58.6273478,40.3743752 C58.2085117,38.9234428 57.6239201,37.7503138 56.8735728,36.8582469 Z M38.3873775,52.7109673 C38.4366999,53.0083229 38.4617653,53.3309334 38.4617653,53.677984 C38.4617653,54.893476 38.2402188,55.9851377 37.7963173,56.9529692 C37.3540329,57.8963604 36.7500357,58.7020719 35.98756,59.3717331 C35.1992102,60.016954 34.2628933,60.5130898 33.1802263,60.8609551 C32.0967507,61.2071911 30.9510157,61.3807165 29.7446384,61.3807165 C29.1786437,61.3807165 28.6247775,61.3375388 28.0830397,61.2528128 C27.5413019,61.1664575 27.0125012,61.062994 26.4950203,60.9391637 C25.9775395,60.7672678 25.4980611,60.5652289 25.0549681,60.3322324 C24.6110665,60.099236 24.180102,59.8352819 23.7620745,59.5403703 C22.9737247,58.9024814 22.3584077,58.1391329 21.9153147,57.2503248 C21.4220907,56.3085629 21.1762873,55.2413413 21.1762873,54.0502895 L21.1762873,52.5985424 L21.7301535,52.5985424 C22.6656619,52.5985424 23.508994,52.8722725 24.2601498,53.4181034 C25.0113057,53.9639342 25.5344465,54.6824757 25.8303808,55.5753572 L25.8303808,55.6128322 C26.0761842,56.1342229 26.3591816,56.5440033 26.6793729,56.841359 C26.8766625,57.0148843 27.0860805,57.1631548 27.307627,57.2877997 C27.5291735,57.4124447 27.7628484,57.5240549 28.0094604,57.6226303 C28.599712,57.8214105 29.1907722,57.9199859 29.7818324,57.9199859 C31.1119199,57.9199859 32.17033,57.5468657 32.9586798,56.798996 C33.7211555,56.101636 34.1036062,55.067816 34.1036062,53.6967215 C34.1036062,52.9749213 33.9928329,52.3264416 33.7704779,51.7537266 C33.5497399,51.2543321 33.2295487,50.8070766 32.8107126,50.4078869 C32.416942,50.0836471 31.9115896,49.8229518 31.2962725,49.6233569 C30.7052123,49.4734571 30.0405728,49.3985072 29.302354,49.3985072 L28.4525534,49.3985072 C27.9843949,49.3985072 27.5849644,49.2306845 27.2518361,48.895854 C26.9195163,48.5610234 26.7537608,48.1463549 26.7537608,47.6494044 C26.7537608,47.1785235 26.9195163,46.7744457 27.2518361,46.4396151 C27.5849644,46.1047846 27.9843949,45.9377766 28.4525534,45.9377766 L29.302354,45.9377766 C30.0155073,45.9377766 30.6688269,45.8383865 31.2598871,45.6387916 C31.7514939,45.4644516 32.2067154,45.1907215 32.6255515,44.815972 C32.9950651,44.4664773 33.2780625,44.0436621 33.4753521,43.5450822 C33.6475762,43.0961975 33.7340925,42.5479226 33.7340925,41.9002576 C33.7340925,40.6293679 33.4017728,39.6566484 32.7371333,38.9837286 C32.1210076,38.2863685 31.1361768,37.9368739 29.7818324,37.9368739 C29.1665153,37.9368739 28.636906,38.0240439 28.193813,38.1967545 C27.6520752,38.3955347 27.2340477,38.64401 26.9381133,38.9413656 C26.5435342,39.3136711 26.2605368,39.6990114 26.0891213,40.0949424 L26.0891213,40.1324174 C25.76893,41.0016734 25.2393207,41.7079948 24.5002933,42.2538257 C23.7620745,42.7996565 22.9365308,43.0725719 22.0260879,43.0725719 L21.4350277,43.0725719 L21.4350277,41.6208248 C21.4350277,40.5291631 21.6436372,39.5743664 22.0624733,38.7556201 C22.4813094,37.866812 23.0602411,37.1148689 23.7984599,36.5006055 C24.5124218,35.8382764 25.3743508,35.3348086 26.3842471,34.9910166 C27.4677226,34.6480393 28.5875836,34.4761433 29.7446384,34.4761433 C30.9760812,34.4761433 32.0967507,34.6244138 33.1066469,34.9225841 C34.1408001,35.2451945 35.0140491,35.7168902 35.7288195,36.3368562 C36.4177159,36.9568223 36.9966476,37.7389083 37.4648061,38.6814849 C37.8577681,39.6737565 38.0550577,40.7531981 38.0550577,41.9189951 C38.0550577,42.4900808 37.9685414,43.0228769 37.7963173,43.518198 C37.6491587,44.0648436 37.4025467,44.5854196 37.0580985,45.0815554 C36.7379072,45.602946 36.3190711,46.0616069 35.8023988,46.4591673 C35.3342404,46.905608 34.7553086,47.2779136 34.0664122,47.5752692 C34.9032758,47.897065 35.5808523,48.2579651 36.0975246,48.6538961 C36.6150055,49.0262016 37.070227,49.4978973 37.4648061,50.0681683 C37.6362216,50.3410837 37.7841888,50.6205165 37.9078991,50.9056521 C38.0308008,51.1907876 38.1294456,51.4946606 38.2030249,51.8172711 C38.2774128,52.1146267 38.3380551,52.412797 38.3873775,52.7109673 Z M76.5394629,70.7413083 L3.77841888,70.7413083 C3.47844169,70.7413083 3.23425541,70.4740956 3.23425541,70.1449677 L3.23425541,27.0878746 L77.0828178,27.0878746 L77.0828178,70.1449677 C77.0828178,70.4740956 76.83944,70.7413083 76.5394629,70.7413083 Z M3.77841888,11.8127573 L11.5309291,11.8127573 L11.5309291,16.2934584 C11.5309291,18.5395116 13.3445378,20.366823 15.5737484,20.366823 L18.6058628,20.366823 C20.8342648,20.366823 22.6486821,18.5395116 22.6486821,16.2934584 L22.6486821,11.8127573 L57.6691997,11.8127573 L57.6691997,16.2934584 C57.6691997,18.5395116 59.4828084,20.366823 61.7120189,20.366823 L64.7441334,20.366823 C66.9733439,20.366823 68.7869526,18.5395116 68.7869526,16.2934584 L68.7869526,11.8127573 L76.5394629,11.8127573 C76.83944,11.8127573 77.0828178,12.0807847 77.0828178,12.4099126 L77.0828178,23.8291829 L3.23425541,23.8291829 L3.23425541,12.4099126 C3.23425541,12.0807847 3.47844169,11.8127573 3.77841888,11.8127573 Z M14.7651845,4.0733646 C14.7651845,3.62447982 15.1274211,3.25869168 15.5737484,3.25869168 L18.6058628,3.25869168 C19.0513815,3.25869168 19.4144267,3.62447982 19.4144267,4.0733646 L19.4144267,16.2934584 C19.4144267,16.7431578 19.0513815,17.1081313 18.6058628,17.1081313 L15.5737484,17.1081313 C15.1274211,17.1081313 14.7651845,16.7431578 14.7651845,16.2934584 L14.7651845,4.0733646 Z M60.9034551,4.0733646 C60.9034551,3.62447982 61.2665002,3.25869168 61.7120189,3.25869168 L64.7441334,3.25869168 C65.1896521,3.25869168 65.5526972,3.62447982 65.5526972,4.0733646 L65.5526972,16.2934584 C65.5526972,16.7431578 65.1896521,17.1081313 64.7441334,17.1081313 L61.7120189,17.1081313 C61.2665002,17.1081313 60.9034551,16.7431578 60.9034551,16.2934584 L60.9034551,4.0733646 Z M76.5394629,8.55406566 L68.7869526,8.55406566 L68.7869526,4.0733646 C68.7869526,1.82812603 66.9733439,0 64.7441334,0 L61.7120189,0 C59.4828084,0 57.6691997,1.82812603 57.6691997,4.0733646 L57.6691997,8.55406566 L22.6486821,8.55406566 L22.6486821,4.0733646 C22.6486821,1.82812603 20.8342648,0 18.6058628,0 L15.5737484,0 C13.3445378,0 11.5309291,1.82812603 11.5309291,4.0733646 L11.5309291,8.55406566 L3.77841888,8.55406566 C1.6955584,8.55406566 0,10.2836163 0,12.4099126 L0,70.1449677 C0,72.2704494 1.6955584,74 3.77841888,74 L76.5394629,74 C78.6223233,74 80.3170732,72.2704494 80.3170732,70.1449677 L80.3170732,12.4099126 C80.3170732,10.2836163 78.6223233,8.55406566 76.5394629,8.55406566 Z" id="Fill-1"></path>
                    </g>
                </g>
            </g>
        </g>
    </g>
</svg>